<svg xmlns="http://www.w3.org/2000/svg" x="0" y="0" version="1.1" viewBox="0 0 188.5 62.2" xml:space="preserve"><defs/><path fill="#b42dfb" d="M163.9 0c-8.9 0-16.4 6.2-18.3 14.6 3.1-5.3 8.7-9 15.2-9.3a18.99 18.99 0 0116.5.4c-3.4-3.5-8.1-5.7-13.4-5.7"/><path fill="#d3fb31" d="M145.6 14.6c-1.6 2.8-2.5 6-2.5 9.4 0 10.4 8.4 18.8 18.8 18.8 2.8 0 5.5-.6 7.9-1.7h-1.1c-5.2 0-10-2.2-13.4-5.6-6-3.1-10.1-9.4-10.1-16.6 0-1.6.1-3 .4-4.3"/><path fill="#981402" d="M160.8 5.2c-6.5.4-12.1 4-15.2 9.3a18.7 18.7 0 009.6 20.8c-3.3-3.4-5.4-8-5.4-13.1.1-7.5 4.6-14 11-17"/><path fill="#00d9fd" d="M177.3 5.6a18.78 18.78 0 012.9 22.5c-1.3 5.7-5.2 10.5-10.4 12.9 9.9-.6 17.7-8.7 17.7-18.7-.1-7.3-4.2-13.5-10.2-16.7"/><path fill="#1922fa" d="M168.7 3.5c-2.8 0-5.5.6-7.9 1.7h1.1c10.4 0 18.8 8.4 18.8 18.8 0 1.4-.2 2.8-.5 4.2 1.6-2.8 2.5-6 2.5-9.4 0-5.1-2-9.7-5.4-13.1-2.6-1.4-5.5-2.2-8.6-2.2"/><path fill="#00d728" d="M180.1 28.1a18.7 18.7 0 01-24.8 7.3c3.4 3.5 8.1 5.6 13.4 5.6h1.1c5.1-2.4 9-7.1 10.3-12.9"/><path d="M161.9 5.2h-1.1c-6.4 3-10.9 9.5-10.9 17 0 5.1 2 9.7 5.4 13.1 2.6 1.3 5.5 2.1 8.6 2.1 6.9 0 13-3.8 16.2-9.4.3-1.3.5-2.7.5-4.2 0-10.2-8.4-18.6-18.7-18.6M31.3 21.5h-7.1c-.5 0-1 .2-1.3.6-.4.4-.6.9-.6 1.3l.1 20.8c0 1.3 1 1.9 1.9 1.9v.3-.3c.9 0 1.9-.6 1.9-1.9v-7.9h4.5l3.3 8.5c.3 1 1.1 1.3 1.7 1.3 1 0 2-.7 2-1.8 0-.2 0-.5-.1-.7l-3.1-8 .2-.1c2-1.1 3.2-3.2 3.2-5.7v-1.7c0-3.9-2.6-6.6-6.6-6.6m-5.2 11.1v-7.3h5.2c1.8 0 2.7 1 2.7 2.8v1.7c0 1.8-.9 2.7-2.7 2.8h-5.2zM54.6 38.9l1 5.3c.2 1.2 1.1 1.6 1.8 1.6v.3-.3c.5 0 1-.2 1.3-.5.3-.2.6-.7.6-1.3v-.5c-1.3-6.8-4-19.1-4-19.3-.7-2.3-2.1-3.3-4.7-3.3s-4.3 1.2-4.7 3.4l-4.4 19.2v.5c0 1.1 1 1.8 2 1.8.7 0 1.6-.4 1.8-1.5.1-.7 1.1-5.1 1.1-5.1V39l8.2-.1zM47 35.1l2.4-9.7c.1-.7.7-.8 1.2-.8.7 0 1 .3 1.1.8l2.1 9.7H47zM72.7 21.1h-7.1c-1 0-1.9.9-1.9 1.9l.1 20.8c0 1.3 1 1.9 1.9 1.9v.3-.3c.9 0 1.9-.6 1.9-1.9v-6.7h5.2c3.9 0 6.6-2.7 6.6-6.6v-2.9c-.1-3.9-2.7-6.5-6.7-6.5m-5.2 12.2v-8.4h5.2c1.8 0 2.7 1 2.7 2.8v2.9c0 1.8-.9 2.8-2.7 2.8l-5.2-.1zM91.7 21h-7.1c-1 0-1.9.9-1.9 1.9l.1 20.8c0 1.3 1 1.9 1.9 1.9v.4-.3c.5 0 1-.2 1.3-.5.4-.3.6-.8.6-1.4v-6.7h5.2c3.9 0 6.6-2.7 6.6-6.6v-2.9c-.1-3.9-2.7-6.6-6.7-6.6m-5.1 12.3v-8.4h5.2c1.8 0 2.7 1 2.7 2.8v2.9c0 1.8-.9 2.8-2.7 2.8l-5.2-.1zM113.2 38.8l1 5.3c.2 1.2 1.1 1.6 1.8 1.6v.3-.3c1 0 2-.7 2-1.8v-.5c-1.3-6.8-4-19.1-4-19.3-.7-2.3-2.1-3.3-4.7-3.3s-4.3 1.2-4.7 3.4l-4.4 19.2v.5c0 1.2 1 1.8 2 1.8.7 0 1.6-.4 1.8-1.5.1-.7 1.1-5.1 1.1-5.1v-.2l8.1-.1zm-7.5-3.8l2.4-9.7c.1-.8.7-.8 1.2-.8.6 0 1 .3 1.1.8l2.1 9.7h-6.8zM8.4 21C3.2 21 .2 24.1.2 29.3L0 37.9c0 5.2 3.1 8.3 8.2 8.3h1.6c5.4-.1 7.9-2.4 7.9-7.1v-5.5c0-.8-.4-1.2-1.2-1.2h-5.2c-.8 0-1.2.4-1.2 1.2V35c0 .8.4 1.2 1.2 1.2h2.4v2.5c0 3.6-1.7 3.9-3.9 3.9H8.2c-2 0-4.3-.9-4.3-5.1l.1-7.7c0-4.2 2.4-5.1 4.4-5.1h.3c4.1.1 5 1.7 5 3.1 0 .7.3 1 1 1h1.7c.8 0 1.2-.4 1.2-1.2v-.1c0-5.5-4.7-6.4-7.5-6.5H8.4M131.8 44l-1.4-1.3 1-1 .4-.4c.2-.1.3-.4.3-.6 0-.5-.3-.9-.8-.9h-.1c-.3 0-.6.1-.7.4l-1.3 1.4-1-1-.4-.4c-.1-.2-.4-.3-.6-.3h-.1c-.4 0-.8.3-.9.8 0 .3.1.6.4.8l1.4 1.3-1.3 1.3c-.2.1-.3.4-.4.6 0 .2.1.5.2.6.1.2.4.3.6.3h.1c.3 0 .6-.1.7-.4l1.3-1.4 1.3 1.3c.1.2.4.4.6.4h.1c.4 0 .8-.3.9-.8 0-.2-.1-.5-.3-.7zM131.8 34.7l-1.4-1.3 1-1 .4-.4c.2-.1.3-.4.3-.6 0-.2-.1-.5-.2-.6-.2-.2-.4-.3-.6-.3h-.1c-.3 0-.6.1-.7.4l-1.3 1.4-1-1-.4-.4c-.1-.2-.4-.3-.6-.3h-.1c-.4 0-.8.3-.9.8 0 .3.1.6.4.8l1.4 1.3-1.3 1.3c-.2.1-.3.4-.4.6 0 .5.3.9.8.9h.1c.3 0 .6-.1.7-.4l1.3-1.4 1.3 1.3c.1.2.4.3.6.4h.1c.4 0 .8-.4.9-.8 0-.3-.1-.6-.3-.7zM126.6 22.4l1.4 1.3-1.3 1.3c-.2.2-.3.4-.4.6 0 .5.3.9.8.9h.1c.3 0 .6-.1.7-.4l1.3-1.4 1.3 1.3c.1.2.4.4.6.4h.1c.4 0 .8-.3.9-.8 0-.3-.1-.6-.4-.8l-1.4-1.3 1-1 .4-.4c.2-.1.3-.4.3-.6 0-.5-.3-.9-.8-.9h-.1c-.3 0-.6.1-.7.4l-1.3 1.4-1-1-.4-.4c-.1-.2-.4-.3-.6-.3h-.1c-.5 0-.8.3-.9.8.2.4.3.7.5.9zM4.5 56.7c-.1 0-.2-.1-.2-.2 0-.8-.5-1.1-1.3-1.1-.7 0-1.3.3-1.3 1.3V59c0 .9.6 1.3 1.3 1.3.7 0 1.3-.3 1.3-1.3v-.5h-.8c-.1 0-.2-.1-.2-.2v-.2c-.1-.1 0-.1.2-.1h1.3c.1 0 .2 0 .2.1v.9c0 1.1-.8 1.7-2 1.7-1.1 0-2-.6-2-1.7v-2.5c0-1.1.8-1.7 2-1.7 1.1 0 1.9.6 1.9 1.6 0 .1-.1.2-.2.2h-.2zM7.6 55.5v2.1h1.2c.8 0 1.2-.2 1.2-1v-.1c0-.8-.4-1-1.2-1H7.6zm-.7-.3c0-.2.1-.2.2-.2H9c1.2 0 1.7.4 1.7 1.5v.1c0 .7-.3 1.1-.9 1.3.6.2.9.6.9 1.3v1.3c0 .1-.1.2-.2.2h-.2c-.2 0-.2-.1-.2-.2v-1.3c0-.8-.4-1.1-1.2-1.1H7.6v2.4c0 .1-.1.2-.2.2h-.3c-.1 0-.2-.1-.2-.2v-5.3zM15 59.4v-.7h-1c-.5 0-1 .3-1 .8s.4.8 1 .8c.5 0 1-.2 1-.9m.6 0c0 .9-.7 1.4-1.6 1.4-.9 0-1.6-.4-1.6-1.3v-.1c0-.8.7-1.3 1.6-1.3h1v-.5c0-.7-.4-.9-1-.9-.5 0-.9.3-.9.8 0 .1-.1.2-.2.2h-.2c-.1 0-.2-.1-.2-.2 0-.7.6-1.2 1.5-1.2s1.6.5 1.6 1.4v1.7zM16.9 56.6c0-.1 0-.2.2-.2h.2c.1 0 .2 0 .3.1l1.2 3.7 1.2-3.7c0-.1.1-.1.3-.1h.2c.1 0 .2.1.2.2l-1.3 3.9c-.1.2-.2.2-.4.2h-.2c-.2 0-.3-.1-.4-.2l-1.5-3.9zM22.1 56.6c0-.1.1-.2.2-.2h.2c.1 0 .2.1.2.2v4c0 .1-.1.2-.2.2h-.2c-.1 0-.2-.1-.2-.2v-4zm0-1.4c0-.1.1-.2.2-.2h.2c.1 0 .2.1.2.2v.4c0 .1-.1.2-.2.2h-.2c-.1 0-.2-.1-.2-.2v-.4zM26 60.7c-.8 0-1.3-.3-1.3-1.1v-4.1c0-.1.1-.2.2-.2h.2c.1 0 .2.1.2.2v.9h1.1c.1 0 .2.1.2.2v.1c0 .1-.1.2-.2.2h-1.1v2.7c0 .5.3.6.8.6h.4c.1 0 .2.1.2.2v.1c0 .1-.1.2-.2.2H26M30.6 59.4v-.7h-1c-.5 0-1 .3-1 .8s.4.8 1 .8c.5 0 1-.2 1-.9m.6 0c0 .9-.7 1.4-1.6 1.4-.9 0-1.6-.4-1.6-1.3v-.1c0-.8.7-1.3 1.6-1.3h1v-.5c0-.7-.4-.9-1-.9-.5 0-.9.3-.9.8 0 .1-.1.2-.2.2h-.2c-.1 0-.2-.1-.2-.2 0-.7.6-1.2 1.5-1.2s1.6.5 1.6 1.4v1.7zM34.3 60.7c-.8 0-1.3-.3-1.3-1.1v-4.1c0-.1.1-.2.2-.2h.2c.1 0 .2.1.2.2v.9h1.1c.1 0 .2.1.2.2v.1c0 .1-.1.2-.2.2h-1.1v2.7c0 .5.3.6.8.6h.4c.1 0 .2.1.2.2v.1c0 .1-.1.2-.2.2h-.5M36.5 56.6c0-.1.1-.2.2-.2h.2c.1 0 .2.1.2.2v4c0 .1-.1.2-.2.2h-.2c-.1 0-.2-.1-.2-.2v-4zm0-1.4c0-.1.1-.2.2-.2h.2c.1 0 .2.1.2.2v.4c0 .1-.1.2-.2.2h-.2c-.1 0-.2-.1-.2-.2v-.4zM40.6 56.8c-.5 0-1 .3-1 .9v1.6c0 .7.4.9 1 .9.5 0 1-.3 1-.9v-1.6c0-.7-.5-.9-1-.9m0 4c-.9 0-1.6-.5-1.6-1.4v-1.7c0-.9.7-1.4 1.6-1.4.9 0 1.6.5 1.6 1.4v1.7c0 .9-.7 1.4-1.6 1.4M46.9 60.7h-.2c-.1 0-.2-.1-.2-.2v-2.8c0-.7-.4-.9-1-.9-.5 0-1 .3-1 .9v2.8c0 .1-.1.2-.2.2h-.2c-.1 0-.2-.1-.2-.2v-2.8c0-.9.7-1.4 1.6-1.4.9 0 1.6.5 1.6 1.4v2.8c0 .1 0 .2-.2.2M52.4 58.2H55v-1.5c0-.9-.6-1.3-1.3-1.3-.7 0-1.3.3-1.3 1.3v1.5zm-.7-1.6c0-1.1.8-1.7 2-1.7 1.1 0 2 .6 2 1.7v3.9c0 .1-.1.2-.2.2h-.2c-.2 0-.2-.1-.2-.2v-1.8h-2.6v1.8c0 .1-.1.2-.2.2h-.2c-.1 0-.2-.1-.2-.2v-3.9zM59.8 57.5c0-.5-.4-.7-.9-.7s-.9.2-.9.7c0 1.1 2.4.6 2.4 2.2 0 .7-.7 1.2-1.6 1.2s-1.5-.4-1.5-1.1c0-.1.1-.2.2-.2h.2c.1 0 .2.1.2.2 0 .5.4.7.9.7s.9-.2.9-.7c0-1.1-2.4-.5-2.4-2.1 0-.7.6-1.2 1.5-1.2s1.5.5 1.5 1.1c0 .1-.1.2-.2.2H60c-.1-.2-.2-.2-.2-.3zM63.5 60.7c-.8 0-1.3-.3-1.3-1.1v-4.1c0-.1.1-.2.2-.2h.2c.1 0 .2.1.2.2v.9h1.1c.1 0 .2.1.2.2v.1c0 .1-.1.2-.2.2h-1.1v2.7c0 .5.2.6.8.6h.4c.1 0 .2.1.2.2v.1c0 .1-.1.2-.2.2h-.5M66.3 57.6v3c0 .1-.1.2-.2.2h-.2c-.1 0-.2-.1-.2-.2v-3c0-.9.5-1.2 1.4-1.2h.5c.1 0 .2.1.2.2v.1c0 .1-.1.2-.2.2h-.3c-.7-.1-1 .1-1 .7M70.6 56.8c-.5 0-1 .3-1 .9v1.6c0 .7.4.9 1 .9.5 0 1-.3 1-.9v-1.6c-.1-.7-.5-.9-1-.9m0 4c-.9 0-1.6-.5-1.6-1.4v-1.7c0-.9.7-1.4 1.6-1.4.9 0 1.6.5 1.6 1.4v1.7c0 .9-.7 1.4-1.6 1.4M74.8 55.5v2.3H76c.8 0 1.3-.3 1.3-1.1v-.2c0-.8-.4-1.1-1.3-1.1h-1.2zm-.7-.3c0-.1.1-.2.2-.2H76c1.2 0 1.8.5 1.8 1.6v.3c0 1.1-.6 1.6-1.8 1.6h-1.3v2.1c0 .1-.1.2-.2.2h-.2c-.1 0-.2-.1-.2-.2v-5.4zM81.9 59.4v-.7h-1c-.5 0-1 .3-1 .8s.4.8 1 .8c.5 0 1-.2 1-.9m.6 0c0 .9-.7 1.4-1.6 1.4-.9 0-1.6-.4-1.6-1.3v-.1c0-.8.7-1.3 1.6-1.3h1v-.5c0-.7-.4-.9-1-.9-.5 0-.9.3-.9.8 0 .1-.1.2-.2.2h-.2c-.1 0-.2-.1-.2-.2 0-.7.6-1.2 1.5-1.2s1.6.5 1.6 1.4v1.7zM84.9 57.6v3c0 .1-.1.2-.2.2h-.2c-.1 0-.2-.1-.2-.2v-3c0-.9.5-1.2 1.4-1.2h.5c.1 0 .2.1.2.2v.1c0 .1-.1.2-.2.2h-.3c-.7-.1-1 .1-1 .7M89 60.7c-.8 0-1.3-.3-1.3-1.1v-4.1c0-.1.1-.2.2-.2h.2c.1 0 .2.1.2.2v.9h1.1c.1 0 .2.1.2.2v.1c0 .1-.1.2-.2.2h-1.1v2.7c0 .5.2.6.8.6h.4c.1 0 .2.1.2.2v.1c0 .1-.1.2-.2.2H89M91.2 56.6c0-.1.1-.2.2-.2h.2c.1 0 .2.1.2.2v4c0 .1-.1.2-.2.2h-.2c-.1 0-.2-.1-.2-.2v-4zm0-1.4c0-.1.1-.2.2-.2h.2c.1 0 .2.1.2.2v.4c0 .1-.1.2-.2.2h-.2c-.1 0-.2-.1-.2-.2v-.4zM94.3 59.4c0 .7.4.9 1 .9.5 0 .9-.3.9-.8 0-.1.1-.2.2-.2h.2c.1 0 .2.1.2.2 0 .8-.7 1.3-1.5 1.3-.9 0-1.6-.5-1.6-1.4v-1.7c0-.9.7-1.4 1.6-1.4.9 0 1.5.5 1.5 1.3 0 .1-.1.2-.2.2h-.2c-.1 0-.2-.1-.2-.2 0-.5-.4-.8-.9-.8s-1 .3-1 .9v1.7zM100.1 60.2c.1 0 .2.1.2.2v.1c0 .1-.1.2-.2.2h-.4c-.7 0-1.1-.3-1.1-1v-4.6c0-.1.1-.2.2-.2h.2c.1 0 .2.1.2.2v4.6c0 .4.2.6.6.6.1-.1.2-.1.3-.1M102.2 58.2h1.9v-.4c0-.7-.4-.9-1-.9-.5 0-1 .3-1 .9v.4zm2 1.2h.2c.1 0 .2.1.2.2 0 .8-.6 1.3-1.5 1.3s-1.6-.5-1.6-1.4v-1.7c0-.9.7-1.4 1.6-1.4.9 0 1.6.5 1.6 1.4v.8c0 .1-.1.2-.2.2h-2.4v.7c0 .7.4.9 1 .9.5 0 .9-.3.9-.8.1-.2.1-.2.2-.2M109.9 55.5v2.3h1.2c.8 0 1.3-.3 1.3-1.1v-.2c0-.8-.4-1.1-1.3-1.1h-1.2zm-.7-.3c0-.1.1-.2.2-.2h1.7c1.2 0 1.8.5 1.8 1.6v.3c0 1.1-.6 1.6-1.8 1.6h-1.3v2.1c0 .1-.1.2-.2.2h-.2c-.1 0-.2-.1-.2-.2v-5.4zM115.3 60.5c0 .1-.1.2-.2.2h-.2c-.1 0-.2-.1-.2-.2v-5.4c0-.1.1-.2.2-.2h.2c.1 0 .2.1.2.2v1.7c.2-.3.6-.5 1.1-.5.8 0 1.4.4 1.4 1.4v2.9c0 .1-.1.2-.2.2h-.2c-.1 0-.2-.1-.2-.2v-2.8c0-.7-.4-.9-1-.9-.5 0-1 .3-1 .9v2.7zM122.3 56.6c0-.1.1-.2.2-.2h.2c.1 0 .2.1.2.2v4.2c0 .9-.7 1.4-1.6 1.4-.9 0-1.5-.5-1.5-1.1 0-.1.1-.2.2-.2h.2c.1 0 .2.1.2.2 0 .4.4.7.9.7s1-.2 1-.9V60c-.2.3-.6.5-1.1.5-.8 0-1.4-.4-1.4-1.4v-2.5c0-.1.1-.2.2-.2h.2c.1 0 .2.1.2.2V59c0 .7.4.9 1 .9.5 0 1-.2 1-.9v-2.4zM127.1 57.5c0-.5-.4-.7-.9-.7s-.9.2-.9.7c0 1.1 2.4.6 2.4 2.2 0 .7-.7 1.2-1.5 1.2-.9 0-1.5-.4-1.5-1.1 0-.1.1-.2.2-.2h.2c.1 0 .2.1.2.2 0 .5.4.7.9.7s.9-.2.9-.7c0-1.1-2.4-.5-2.4-2.1 0-.7.6-1.2 1.5-1.2s1.5.5 1.5 1.1c0 .1-.1.2-.2.2h-.2c-.1-.2-.2-.2-.2-.3zM129.5 56.6c0-.1.1-.2.2-.2h.2c.1 0 .2.1.2.2v4c0 .1-.1.2-.2.2h-.2c-.1 0-.2-.1-.2-.2v-4zm0-1.4c0-.1.1-.2.2-.2h.2c.1 0 .2.1.2.2v.4c0 .1-.1.2-.2.2h-.2c-.1 0-.2-.1-.2-.2v-.4zM132.6 59.4c0 .7.4.9 1 .9.5 0 .9-.3.9-.8 0-.1.1-.2.2-.2h.2c.1 0 .2.1.2.2 0 .8-.7 1.3-1.5 1.3-.9 0-1.6-.5-1.6-1.4v-1.7c0-.9.7-1.4 1.6-1.4.9 0 1.5.5 1.5 1.3 0 .1-.1.2-.2.2h-.2c-.1 0-.2-.1-.2-.2 0-.5-.4-.8-.9-.8s-1 .3-1 .9v1.7zM139.1 57.5c0-.5-.4-.7-.9-.7s-.9.2-.9.7c0 1.1 2.4.6 2.4 2.2 0 .7-.7 1.2-1.6 1.2-.9 0-1.5-.4-1.5-1.1 0-.1.1-.2.2-.2h.2c.1 0 .2.1.2.2 0 .5.4.7.9.7s.9-.2.9-.7c0-1.1-2.4-.5-2.4-2.1 0-.7.6-1.2 1.5-1.2s1.5.5 1.5 1.1c0 .1-.1.2-.2.2h-.2c-.1-.2-.1-.2-.1-.3zM144.8 58.2h2.6v-1.5c0-.9-.6-1.3-1.3-1.3-.7 0-1.3.3-1.3 1.3v1.5zm-.7-1.6c0-1.1.8-1.7 2-1.7 1.1 0 2 .6 2 1.7v3.9c0 .1-.1.2-.2.2h-.2c-.2 0-.2-.1-.2-.2v-1.8h-2.6v1.8c0 .1-.1.2-.2.2h-.2c-.1 0-.2-.1-.2-.2v-3.9zM155.3 60.5c0 .1-.1.2-.2.2h-.2c-.1 0-.2-.1-.2-.2v-2.9c0-.6-.4-.8-.8-.8-.5 0-.9.2-.9.8v2.9c0 .1-.1.2-.2.2h-.2c-.1 0-.2-.1-.2-.2v-2.9c0-.6-.4-.8-.9-.8s-.8.2-.8.8v2.9c0 .1-.1.2-.2.2h-.2c-.1 0-.2-.1-.2-.2v-3c0-.8.6-1.2 1.4-1.2.6 0 1 .2 1.2.7.2-.4.7-.7 1.2-.7.8 0 1.4.4 1.4 1.2v3zM159.4 57.5c0-.5-.4-.7-.9-.7s-.9.2-.9.7c0 1.1 2.4.6 2.4 2.2 0 .7-.7 1.2-1.5 1.2-.9 0-1.5-.4-1.5-1.1 0-.1.1-.2.2-.2h.2c.1 0 .2.1.2.2 0 .5.4.7.9.7s.9-.2.9-.7c0-1.1-2.4-.5-2.4-2.1 0-.7.6-1.2 1.5-1.2s1.5.5 1.5 1.1c0 .1-.1.2-.2.2h-.2c-.2-.2-.2-.2-.2-.3zM163.1 60.7c-.8 0-1.3-.3-1.3-1.1v-4.1c0-.1.1-.2.2-.2h.2c.1 0 .2.1.2.2v.9h1.1c.1 0 .2.1.2.2v.1c0 .1-.1.2-.2.2h-1.1v2.7c0 .5.2.6.8.6h.4c.1 0 .2.1.2.2v.1c0 .1-.1.2-.2.2h-.5M165.8 58.2h1.9v-.4c0-.7-.4-.9-1-.9-.5 0-1 .3-1 .9v.4zm2 1.2h.2c.1 0 .2.1.2.2 0 .8-.6 1.3-1.5 1.3s-1.6-.5-1.6-1.4v-1.7c0-.9.7-1.4 1.6-1.4.9 0 1.6.5 1.6 1.4v.8c0 .1-.1.2-.2.2h-2.4v.7c0 .7.4.9 1 .9.5 0 .9-.3.9-.8.1-.2.1-.2.2-.2M170.7 57.6v3c0 .1-.1.2-.2.2h-.2c-.1 0-.2-.1-.2-.2v-3c0-.9.5-1.2 1.4-1.2h.5c.1 0 .2.1.2.2v.1c0 .1-.1.2-.2.2h-.3c-.7-.1-1 .1-1 .7M174 59.4c0 .7.4.9 1 .9.5 0 1-.3 1-.9v-1.6c0-.7-.4-.9-1-.9-.5 0-1 .3-1 .9v1.6zm-.6-1.7c0-.9.6-1.4 1.4-1.4.5 0 .9.2 1.1.5v-1.7c0-.1.1-.2.2-.2h.2c.1 0 .2.1.2.2v4.3c0 .9-.7 1.4-1.6 1.4-.9 0-1.6-.5-1.6-1.4v-1.7zM180.8 59.4v-.7h-1c-.5 0-1 .3-1 .8s.4.8 1 .8 1-.2 1-.9m.6 0c0 .9-.7 1.4-1.6 1.4-.9 0-1.6-.4-1.6-1.3v-.1c0-.8.7-1.3 1.6-1.3h1v-.5c0-.7-.4-.9-1-.9-.5 0-.9.3-.9.8 0 .1-.1.2-.2.2h-.2c-.1 0-.2-.1-.2-.2 0-.7.6-1.2 1.5-1.2s1.6.5 1.6 1.4v1.7zM188.5 60.5c0 .1-.1.2-.2.2h-.2c-.1 0-.2-.1-.2-.2v-2.9c0-.6-.4-.8-.8-.8-.5 0-.9.2-.9.8v2.9c0 .1-.1.2-.2.2h-.2c-.1 0-.2-.1-.2-.2v-2.9c0-.6-.4-.8-.9-.8s-.8.2-.8.8v2.9c0 .1-.1.2-.2.2h-.2c-.1 0-.2-.1-.2-.2v-3c0-.8.6-1.2 1.4-1.2.6 0 1 .2 1.2.7.2-.4.7-.7 1.2-.7.8 0 1.4.4 1.4 1.2v3z"/></svg>